<svg xmlns="http://www.w3.org/2000/svg" viewBox="0 0 512 512">
  <defs>
    <linearGradient id="bg" x1="0%" y1="0%" x2="100%" y2="100%">
      <stop offset="0%" stop-color="#667eea"/>
      <stop offset="100%" stop-color="#764ba2"/>
    </linearGradient>
  </defs>
  <!-- Background -->
  <rect width="512" height="512" rx="96" fill="url(#bg)"/>
  <!-- Receipt paper -->
  <rect x="116" y="80" width="280" height="330" rx="16" fill="white"/>
  <!-- Header bar -->
  <rect x="132" y="100" width="248" height="48" rx="10" fill="#667eea" opacity="0.12"/>
  <rect x="152" y="114" width="190" height="14" rx="7" fill="#667eea"/>
  <!-- Divider -->
  <rect x="132" y="162" width="248" height="2" fill="#667eea" opacity="0.15"/>
  <!-- Info lines -->
  <rect x="152" y="182" width="88" height="10" rx="5" fill="#dddddd"/>
  <rect x="252" y="182" width="128" height="10" rx="5" fill="#aaaaaa"/>
  <rect x="152" y="206" width="72" height="10" rx="5" fill="#dddddd"/>
  <rect x="252" y="206" width="100" height="10" rx="5" fill="#aaaaaa"/>
  <!-- Amount box with gradient -->
  <rect x="132" y="232" width="248" height="80" rx="14" fill="url(#bg)"/>
  <rect x="152" y="246" width="96" height="10" rx="5" fill="white" opacity="0.6"/>
  <rect x="152" y="266" width="172" height="26" rx="13" fill="white"/>
  <!-- Description lines -->
  <rect x="152" y="330" width="216" height="10" rx="5" fill="#dddddd"/>
  <rect x="152" y="350" width="170" height="10" rx="5" fill="#dddddd"/>
  <!-- Signature lines -->
  <rect x="140" y="382" width="88" height="2.5" fill="#c0c0c0"/>
  <rect x="284" y="382" width="88" height="2.5" fill="#c0c0c0"/>
  <!-- Bottom zigzag (receipt style) -->
  <path d="M116 408 L126 399 L136 408 L146 399 L156 408 L166 399 L176 408 L186 399 L196 408 L206 399 L216 408 L226 399 L236 408 L246 399 L256 408 L266 399 L276 408 L286 399 L296 408 L306 399 L316 408 L326 399 L336 408 L346 399 L356 408 L366 399 L376 408 L386 399 L396 408 L396 432 L116 432 Z" fill="white"/>
</svg>
